<svg height="512" viewBox="0 0 64 64" width="512" xmlns="http://www.w3.org/2000/svg"><g id="Filled_outline" data-name="Filled outline"><circle cx="35" cy="29" fill="#9eccdc" r="26"/><path d="m16.5 62h-14.5v-2h14.5a2.5 2.5 0 0 0 0-5h-6a4.5 4.5 0 0 1 0-9h5.5v2h-5.5a2.5 2.5 0 0 0 0 5h6a4.5 4.5 0 0 1 0 9z" fill="#629f9a"/><path d="m11.01 39.035c8.869-2.414 30.369-9.867 43.055-27.706a26.163 26.163 0 0 0 -3.977-3.5c-12.647 17.671-33.349 24.596-40.529 26.542a25.747 25.747 0 0 0 1.451 4.664z" fill="#4b6c77"/><path d="m13.249 43.237a26.045 26.045 0 0 0 3.151 3.919 80.434 80.434 0 0 0 43.5-25.67 25.876 25.876 0 0 0 -2.8-6.194c-13.074 18.408-35.514 25.764-43.851 27.945z" fill="#4b6c77"/><path d="m11.01 39.035a25.841 25.841 0 0 0 2.239 4.2c8.337-2.181 30.777-9.542 43.842-27.945a26.13 26.13 0 0 0 -3.026-3.963c-12.686 17.841-34.186 25.294-43.055 27.708z" fill="#9eccdc"/><path d="m45.78 13.128-20.74-8.148a25.969 25.969 0 0 0 -5.819 3.36l22.26 9.043c1.475-1.325 2.919-2.741 4.299-4.255z" fill="#629f9a"/><path d="m50.086 7.835a25.987 25.987 0 0 0 -25.046-2.855l20.74 8.148a57.105 57.105 0 0 0 4.306-5.293z" fill="#9eccdc"/><path d="m19.221 8.34a26.152 26.152 0 0 0 -3.933 3.716l21.631 9.072c1.543-1.158 3.069-2.405 4.562-3.745z" fill="#9eccdc"/><path d="m15.288 12.056a26.038 26.038 0 0 0 -3.432 5.1l18.634 8.284a74.185 74.185 0 0 0 6.429-4.312z" fill="#629f9a"/><path d="m11.856 17.158a25.79 25.79 0 0 0 -2.11 5.657l13.254 6.185.421.211c2.267-1.073 4.65-2.323 7.069-3.771z" fill="#9eccdc"/><path d="m17.514 31.743 5.486-2.743-13.254-6.185a26.013 26.013 0 0 0 -.741 5.985l7.918 3.167c.195-.067.392-.147.591-.224z" fill="#629f9a"/><path d="m49.565 31.347 7.549 11.325a25.842 25.842 0 0 0 3.131-7.451l-6.223-7.714q-2.222 2.055-4.457 3.84z" fill="#9eccdc"/><path d="m54.022 27.507 6.223 7.714a26.033 26.033 0 0 0 -.352-13.735 82.868 82.868 0 0 1 -5.871 6.021z" fill="#629f9a"/><path d="m44.507 35.086 8.88 12.3a26.093 26.093 0 0 0 3.727-4.71l-7.549-11.329q-2.534 2.027-5.058 3.739z" fill="#629f9a"/><path d="m47.986 51.521a26.078 26.078 0 0 0 5.4-4.139l-8.88-12.3q-2.226 1.514-4.415 2.8z" fill="#9eccdc"/><path d="m42.527 53.889a25.832 25.832 0 0 0 5.459-2.368l-7.894-13.635c-1.38.813-2.742 1.558-4.082 2.247z" fill="#629f9a"/><path d="m35.22 54.994a25.961 25.961 0 0 0 7.307-1.1l-6.517-13.761c-2.114 1.087-4.17 2.03-6.133 2.84z" fill="#9eccdc"/><path d="m27.485 53.893a26.006 26.006 0 0 0 7.515 1.107c.074 0 .146-.005.22-.006l-5.343-12.021c-2.116.873-4.122 1.594-5.985 2.193z" fill="#629f9a"/><path d="m27.485 53.893-3.593-8.727a72.959 72.959 0 0 1 -7.481 1.987 25.977 25.977 0 0 0 11.074 6.74z" fill="#9eccdc"/><path d="m39 6h2v2h-2z" fill="#2c5b82"/><path d="m43 8h2v2h-2z" fill="#2c5b82"/><circle cx="6" cy="6" fill="#dc93bf" r="3"/><path d="m10 6.757h2v8.485h-2z" fill="#f9d88e" transform="matrix(.707 -.707 .707 .707 -4.556 11)"/><path d="m35 2a26.958 26.958 0 0 0 -21.233 10.353l-4.334-4.334a3.947 3.947 0 0 0 .567-2.019 4 4 0 1 0 -4 4 3.947 3.947 0 0 0 2.019-.567l4.553 4.553a26.934 26.934 0 0 0 1.472 32.014h-3.544a4.5 4.5 0 0 0 0 9h6a2.5 2.5 0 0 1 0 5h-14.5v2h14.5a4.5 4.5 0 0 0 0-9h-6a2.5 2.5 0 0 1 0-5h5.338a26.994 26.994 0 1 0 19.162-46zm-29 6a2 2 0 1 1 2-2 2 2 0 0 1 -2 2zm29-4a24.846 24.846 0 0 1 13.659 4.077q-1.511 2.028-3.155 3.868l-17.6-6.914a24.921 24.921 0 0 1 7.096-1.031zm-9.935 2.064 18.973 7.454q-1.357 1.407-2.774 2.7l-19.964-8.118a25.041 25.041 0 0 1 3.765-2.036zm-5.665 3.425 20.189 8.2q-1.4 1.192-2.834 2.28l-19.763-8.283a25.125 25.125 0 0 1 2.408-2.197zm-3.8 3.778 19.28 8.085c-1.5 1.061-3 2.042-4.487 2.946l-17.137-7.612a25.088 25.088 0 0 1 2.334-3.419zm-3.254 5.2 15.927 7.078c-1.667.943-3.3 1.785-4.881 2.545l-12.463-5.826a24.8 24.8 0 0 1 1.407-3.798zm-1.878 5.785 10.566 4.93c-1.448.644-2.826 1.21-4.114 1.706l-6.888-2.756a25.012 25.012 0 0 1 .426-3.881zm-.425 6.039 4.057 1.625c-1.465.507-2.73.9-3.754 1.195a24.934 24.934 0 0 1 -.313-2.821zm.718 4.787c8.518-2.428 27.31-9.392 39.537-25.837a25.409 25.409 0 0 1 2.467 2.18c-12.197 16.579-32.173 23.859-41.15 26.407a24.612 24.612 0 0 1 -.864-2.751zm7.708 12.646c1.474-.348 3.106-.784 4.86-1.323l2.389 5.8a25.012 25.012 0 0 1 -7.259-4.478zm9.765 5.336-3.004-7.272q1.983-.666 4.131-1.515l4.306 9.691a24.818 24.818 0 0 1 -5.443-.905zm7.638.919-4.663-10.47q2.118-.9 4.343-2.007l5.561 11.739a24.89 24.89 0 0 1 -5.251.737zm7.19-1.316-5.72-12.075q1.191-.63 2.4-1.323l6.872 11.869a24.9 24.9 0 0 1 -3.562 1.528zm5.284-2.532-6.88-11.883q1.4-.847 2.812-1.784l7.791 10.788a25.14 25.14 0 0 1 -3.733 2.878zm5.151-4.318-7.577-10.477q1.706-1.194 3.417-2.527l6.577 9.864a25.087 25.087 0 0 1 -2.427 3.139zm3.561-5.042-6.143-9.215q1.507-1.237 3.007-2.592l5.238 6.493a24.814 24.814 0 0 1 -2.112 5.313zm2.942-11.771a25.059 25.059 0 0 1 -.313 3.937l-4.3-5.337q2.022-1.919 4.008-4.067a25.007 25.007 0 0 1 .605 5.467zm-1.237-7.755a79.176 79.176 0 0 1 -42.015 24.813 25.294 25.294 0 0 1 -1.861-2.23c9.473-2.648 29.5-9.96 42.1-26.714a24.981 24.981 0 0 1 1.776 4.131zm-2.892-5.984c-12.489 17.13-33.092 24.359-42.165 26.819a24.632 24.632 0 0 1 -1.3-2.4c9.243-2.652 29.263-10.053 41.725-26.756a25.023 25.023 0 0 1 1.74 2.337z"/><path d="m39 6h2v2h-2z"/><path d="m43 8h2v2h-2z"/></g></svg>