<?xml version="1.0" encoding="UTF-8" standalone="no"?>
<svg
   xmlns:dc="http://purl.org/dc/elements/1.1/"
   xmlns:cc="http://creativecommons.org/ns#"
   xmlns:rdf="http://www.w3.org/1999/02/22-rdf-syntax-ns#"
   xmlns:svg="http://www.w3.org/2000/svg"
   xmlns="http://www.w3.org/2000/svg"
   xmlns:sodipodi="http://sodipodi.sourceforge.net/DTD/sodipodi-0.dtd"
   xmlns:inkscape="http://www.inkscape.org/namespaces/inkscape"
   height="512"
   viewBox="0 0 64 64"
   width="512"
   version="1.1"
   id="svg55"
   sodipodi:docname="hilo_negro.svg"
   inkscape:version="0.92.3 (2405546, 2018-03-11)">
  <metadata
     id="metadata61">
    <rdf:RDF>
      <cc:Work
         rdf:about="">
        <dc:format>image/svg+xml</dc:format>
        <dc:type
           rdf:resource="http://purl.org/dc/dcmitype/StillImage" />
        <dc:title></dc:title>
      </cc:Work>
    </rdf:RDF>
  </metadata>
  <defs
     id="defs59" />
  <sodipodi:namedview
     pagecolor="#ffffff"
     bordercolor="#666666"
     borderopacity="1"
     objecttolerance="10"
     gridtolerance="10"
     guidetolerance="10"
     inkscape:pageopacity="0"
     inkscape:pageshadow="2"
     inkscape:window-width="1323"
     inkscape:window-height="713"
     id="namedview57"
     showgrid="false"
     inkscape:zoom="0.65186406"
     inkscape:cx="202.97413"
     inkscape:cy="263.13444"
     inkscape:window-x="43"
     inkscape:window-y="27"
     inkscape:window-maximized="1"
     inkscape:current-layer="svg55" />
  <path
     style="fill:#2c5b82"
     inkscape:connector-curvature="0"
     id="path40"
     d="m 39,6 h 2 v 2 h -2 z" />
  <path
     style="fill:#2c5b82"
     inkscape:connector-curvature="0"
     id="path42"
     d="m 43,8 h 2 v 2 h -2 z" />
  <circle
     style="fill:#dc93bf"
     id="circle44"
     r="3"
     cy="6"
     cx="6" />
  <path
     style="fill:#f9d88e;stroke-width:0.99984896"
     inkscape:connector-curvature="0"
     id="path46"
     d="m 7.291199,8.707199 1.414,-1.414 5.998895,5.998895 -1.414,1.414 z" />
  <path
     inkscape:connector-curvature="0"
     id="path48"
     d="m 34.272199,1.274199 a 26.958,26.958 0 0 0 -21.233,10.353 l -4.334,-4.334 a 3.947,3.947 0 0 0 0.567,-2.019 4,4 0 1 0 -4,4 3.947,3.947 0 0 0 2.019,-0.567 l 4.553,4.553 a 26.934,26.934 0 0 0 1.472,32.014 h -3.544 a 4.5,4.5 0 0 0 0,9 h 6 a 2.5,2.5 0 0 1 0,5 h -14.5 v 2 h 14.5 a 4.5,4.5 0 0 0 0,-9 h -6 a 2.5,2.5 0 0 1 0,-5 h 5.338 a 26.994,26.994 0 1 0 19.162,-46 z m -29,6 a 2,2 0 1 1 2,-2 2,2 0 0 1 -2,2 z m 29,-4 a 24.846,24.846 0 0 1 13.659,4.077 q -1.511,2.028 -3.155,3.868 l -17.6,-6.914 a 24.921,24.921 0 0 1 7.096,-1.031 z m -9.935,2.064 18.973,7.454 q -1.357,1.407 -2.774,2.7 l -19.964,-8.118 a 25.041,25.041 0 0 1 3.765,-2.036 z m -5.665,3.425 20.189,8.2 q -1.4,1.192 -2.834,2.28 l -19.763,-8.283 a 25.125,25.125 0 0 1 2.408,-2.197 z m -3.8,3.778 19.28,8.085 c -1.5,1.061 -3,2.042 -4.487,2.946 l -17.137,-7.612 a 25.088,25.088 0 0 1 2.334,-3.419 z m -3.254,5.2 15.927,7.078 c -1.667,0.943 -3.3,1.785 -4.881,2.545 l -12.463,-5.826 a 24.8,24.8 0 0 1 1.407,-3.798 z m -1.878,5.785 10.566,4.93 c -1.448,0.644 -2.826,1.21 -4.114,1.706 l -6.888,-2.756 a 25.012,25.012 0 0 1 0.426,-3.881 z m -0.425,6.039 4.057,1.625 c -1.465,0.507 -2.73,0.9 -3.754,1.195 a 24.934,24.934 0 0 1 -0.313,-2.821 z m 0.718,4.787 c 8.518,-2.428 27.31,-9.392 39.537,-25.837 a 25.409,25.409 0 0 1 2.467,2.18 c -12.197,16.579 -32.173,23.859 -41.15,26.407 a 24.612,24.612 0 0 1 -0.864,-2.751 z m 7.708,12.646 c 1.474,-0.348 3.106,-0.784 4.86,-1.323 l 2.389,5.8 a 25.012,25.012 0 0 1 -7.259,-4.478 z m 9.765,5.336 -3.004,-7.272 q 1.983,-0.666 4.131,-1.515 l 4.306,9.691 a 24.818,24.818 0 0 1 -5.443,-0.905 z m 7.638,0.919 -4.663,-10.47 q 2.118,-0.9 4.343,-2.007 l 5.561,11.739 a 24.89,24.89 0 0 1 -5.251,0.737 z m 7.19,-1.316 -5.72,-12.075 q 1.191,-0.63 2.4,-1.323 l 6.872,11.869 a 24.9,24.9 0 0 1 -3.562,1.528 z m 5.284,-2.532 -6.88,-11.883 q 1.4,-0.847 2.812,-1.784 l 7.791,10.788 a 25.14,25.14 0 0 1 -3.733,2.878 z m 5.151,-4.318 -7.577,-10.477 q 1.706,-1.194 3.417,-2.527 l 6.577,9.864 a 25.087,25.087 0 0 1 -2.427,3.139 z m 3.561,-5.042 -6.143,-9.215 q 1.507,-1.237 3.007,-2.592 l 5.238,6.493 a 24.814,24.814 0 0 1 -2.112,5.313 z m 2.942,-11.771 a 25.059,25.059 0 0 1 -0.313,3.937 l -4.3,-5.337 q 2.022,-1.919 4.008,-4.067 a 25.007,25.007 0 0 1 0.605,5.467 z m -1.237,-7.755 a 79.176,79.176 0 0 1 -42.015,24.813 25.294,25.294 0 0 1 -1.861,-2.23 c 9.473,-2.648 29.5,-9.96 42.1,-26.714 a 24.981,24.981 0 0 1 1.776,4.131 z m -2.892,-5.984 c -12.489,17.13 -33.092,24.359 -42.165,26.819 a 24.632,24.632 0 0 1 -1.3,-2.4 c 9.243,-2.652 29.263,-10.053 41.725,-26.756 a 25.023,25.023 0 0 1 1.74,2.337 z" />
  <path
     inkscape:connector-curvature="0"
     id="path50"
     d="m 39,6 h 2 v 2 h -2 z" />
  <path
     inkscape:connector-curvature="0"
     id="path52"
     d="m 43,8 h 2 v 2 h -2 z" />
</svg>
